<?xml version="1.0" standalone="no"?>
<!DOCTYPE svg PUBLIC "-//W3C//DTD SVG 20010904//EN"
 "http://www.w3.org/TR/2001/REC-SVG-20010904/DTD/svg10.dtd">
<svg version="1.0" xmlns="http://www.w3.org/2000/svg"
 width="512.000000pt" height="512.000000pt" viewBox="0 0 512.000000 512.000000"
 preserveAspectRatio="xMidYMid meet">

<g transform="translate(0.000000,512.000000) scale(0.100000,-0.100000)"
fill="#000000" stroke="none">
<path d="M810 4903 c-39 -14 -40 -22 -40 -489 l0 -452 -121 -253 c-66 -140
-126 -260 -132 -268 -20 -24 -15 -425 6 -539 10 -51 22 -104 27 -118 6 -16 10
-415 10 -1045 l0 -1019 -30 0 c-40 0 -76 -18 -97 -49 -15 -22 -18 -53 -21
-191 -3 -189 6 -221 68 -252 33 -17 153 -18 2078 -18 2227 0 2089 -4 2129 56
16 24 18 50 18 200 0 187 -6 214 -57 240 -15 8 -43 14 -63 14 l-35 0 0 918 0
917 45 90 c79 158 108 316 108 587 0 206 25 146 -202 493 l-151 230 0 453 0
453 -25 24 -24 25 -1738 -1 c-956 0 -1745 -3 -1753 -6z m3408 -515 l2 -388
-1660 0 -1660 0 0 390 0 390 1658 -2 1657 -3 3 -387z m85 -600 c30 -46 88
-136 130 -200 l77 -118 -1915 0 -1914 0 76 158 c41 86 84 176 95 200 l19 42
1689 0 1690 0 53 -82z m-2996 -630 c-6 -210 -27 -321 -81 -435 -63 -132 -142
-188 -266 -188 -99 0 -155 31 -210 116 -75 117 -108 258 -117 512 l-6 177 343
0 343 0 -6 -182z m821 92 c2 -47 -2 -137 -8 -200 -30 -294 -119 -463 -266
-506 -185 -54 -323 70 -379 341 -20 98 -35 313 -28 395 l6 60 336 -2 336 -3 3
-85z m812 -47 c0 -143 -17 -288 -46 -383 -25 -86 -83 -187 -128 -226 -73 -63
-204 -81 -284 -40 -140 73 -222 321 -222 676 l0 110 340 0 340 0 0 -137z m818
42 c4 -116 -13 -292 -38 -388 -37 -147 -106 -254 -195 -300 -58 -30 -174 -30
-231 0 -139 74 -213 295 -214 636 l0 147 338 -2 337 -3 3 -90z m812 -52 c0
-368 -94 -597 -266 -649 -106 -32 -178 -13 -254 64 -100 102 -146 266 -157
560 l-6 172 341 0 342 0 0 -147z m-3150 -551 c50 -99 114 -168 195 -208 54
-26 70 -29 161 -29 96 0 103 2 176 38 91 45 150 106 203 212 l35 70 0 -1002 0
-1003 -555 0 -555 0 0 849 0 848 48 18 c70 27 171 132 213 222 18 40 34 71 36
70 1 -2 20 -40 43 -85z m1629 3 c72 -149 179 -230 317 -242 182 -15 333 75
420 251 l37 76 38 -79 c101 -206 278 -293 477 -232 39 11 73 21 76 21 3 0 5
-386 4 -857 l-3 -858 -1045 0 -1045 0 -3 892 -2 893 44 -34 c71 -54 128 -71
231 -70 126 0 189 26 276 113 47 47 76 87 100 138 19 40 35 73 36 73 1 0 20
-38 42 -85z m-2244 -211 c28 -13 71 -27 98 -30 l47 -7 -2 -836 -3 -836 -125 0
-125 0 -3 893 -2 894 32 -28 c18 -15 56 -38 83 -50z m3765 -1969 l0 -125
-2010 0 -2010 0 0 125 0 125 2010 0 2010 0 0 -125z"/>
<path d="M1818 4636 c-57 -20 -83 -41 -102 -79 -43 -91 4 -168 122 -202 72
-21 102 -40 102 -65 0 -44 -64 -51 -136 -15 l-49 25 -40 -41 c-39 -39 -40 -40
-20 -56 74 -57 197 -71 276 -30 56 29 95 98 85 153 -11 56 -51 92 -141 123
-43 16 -84 35 -89 44 -28 44 77 66 126 28 l25 -20 43 44 42 43 -25 17 c-34 22
-112 45 -151 45 -17 -1 -48 -7 -68 -14z"/>
<path d="M2797 4626 c-123 -44 -184 -176 -145 -310 16 -54 93 -131 144 -145
94 -26 175 -2 237 69 110 128 57 329 -100 386 -21 7 -51 13 -68 13 -16 0 -47
-6 -68 -13z m142 -132 c106 -89 3 -269 -121 -210 -78 37 -95 141 -34 202 45
45 108 48 155 8z"/>
<path d="M2160 4395 l0 -235 55 0 55 0 0 80 0 80 85 0 85 0 0 -81 0 -80 53 3
52 3 3 233 2 232 -55 0 -55 0 0 -95 0 -95 -85 0 -85 0 0 95 0 95 -55 0 -55 0
0 -235z"/>
<path d="M3182 4398 l3 -233 53 -3 52 -3 0 90 0 91 85 0 c65 0 95 5 123 19 95
49 100 196 9 251 -28 17 -51 20 -180 20 l-147 0 2 -232z m277 108 c15 -18 4
-45 -23 -52 -12 -3 -49 -4 -81 -2 -60 3 -60 3 -63 36 l-3 32 79 0 c55 0 83 -4
91 -14z"/>
<path d="M1977 1822 c-15 -16 -17 -47 -17 -219 0 -186 1 -201 20 -218 27 -24
70 -22 92 5 16 20 18 44 18 214 0 157 -3 196 -16 214 -19 28 -74 30 -97 4z"/>
<path d="M2575 2245 l-25 -24 0 -491 c0 -436 -2 -490 -15 -490 -29 0 -71 -28
-83 -55 -19 -41 -16 -215 4 -244 37 -52 20 -51 914 -51 913 0 883 -2 915 60
13 26 16 54 13 132 -3 98 -3 100 -36 129 -18 16 -41 29 -52 29 -20 0 -20 8
-20 480 0 330 -3 487 -11 503 -6 14 -22 30 -36 36 -17 8 -248 11 -784 11
l-760 0 -24 -25z m1483 -557 l2 -448 -690 0 -690 0 0 450 0 450 688 -2 687 -3
3 -447z m110 -620 l-3 -43 -797 -3 -798 -2 0 45 0 45 801 0 800 0 -3 -42z"/>
</g>
</svg>
